<?xml version="1.0" standalone="no"?>
<!DOCTYPE svg PUBLIC "-//W3C//DTD SVG 20010904//EN"
 "http://www.w3.org/TR/2001/REC-SVG-20010904/DTD/svg10.dtd">
<svg version="1.0" xmlns="http://www.w3.org/2000/svg"
 width="649.000000pt" height="92.000000pt" viewBox="0 0 649.000000 92.000000"
 preserveAspectRatio="xMidYMid meet">

<g transform="translate(0.000000,92.000000) scale(0.100000,-0.100000)"
fill="#000000" stroke="none">
<path d="M1480 595 c0 -41 -2 -75 -4 -75 -2 0 -17 7 -32 15 -86 45 -194 -22
-194 -120 0 -104 118 -169 207 -115 55 33 63 62 63 225 0 138 -1 145 -20 145
-18 0 -20 -7 -20 -75z m-29 -114 c21 -22 29 -39 29 -66 0 -51 -44 -95 -95 -95
-48 0 -95 44 -95 90 0 88 100 132 161 71z"/>
<path d="M1898 628 c-2 -36 -7 -44 -25 -46 -33 -5 -31 -42 2 -42 l25 0 0 -103
c0 -95 2 -105 23 -125 13 -12 31 -22 40 -22 23 0 21 32 -3 48 -18 11 -20 25
-22 169 -3 139 -5 158 -20 161 -13 3 -17 -6 -20 -40z"/>
<path d="M449 621 c-16 -16 -30 -38 -30 -48 -4 -64 21 -95 100 -120 54 -17
101 -51 101 -73 0 -6 -12 -23 -26 -37 -22 -21 -32 -25 -66 -20 -24 3 -51 16
-67 32 -18 16 -34 23 -44 19 -21 -8 -21 -9 0 -41 45 -69 193 -71 228 -2 35 68
2 120 -100 158 -72 27 -85 37 -85 66 0 56 77 73 130 29 28 -24 33 -25 46 -12
13 13 11 18 -21 46 -30 27 -44 32 -86 32 -43 0 -55 -5 -80 -29z"/>
<path d="M760 533 c-92 -47 -91 -191 1 -239 41 -21 103 -13 135 17 l24 22 0
-21 c0 -15 6 -22 20 -22 19 0 20 7 20 125 0 118 -1 125 -20 125 -14 0 -20 -7
-20 -22 l0 -21 -23 21 c-32 30 -94 37 -137 15z m104 -33 c14 -5 32 -23 41 -41
51 -97 -68 -187 -146 -110 -75 76 4 190 105 151z"/>
<path d="M1073 538 c-13 -6 -23 -15 -23 -20 0 -4 -4 -8 -10 -8 -5 0 -10 7 -10
16 0 9 -7 14 -17 12 -16 -3 -18 -17 -19 -106 -2 -116 2 -142 22 -142 11 0 14
17 14 69 0 78 14 127 40 141 31 16 68 11 90 -12 17 -18 20 -35 20 -110 0 -81
2 -88 20 -88 19 0 20 7 20 90 0 106 -14 142 -61 159 -39 13 -57 13 -86 -1z"/>
<path d="M1646 540 c-38 -12 -66 -38 -82 -77 -18 -42 -18 -67 3 -110 32 -68
115 -93 181 -53 26 16 32 17 32 5 0 -8 9 -15 20 -15 19 0 20 7 20 125 0 118
-1 125 -20 125 -14 0 -20 -7 -20 -22 l0 -21 -22 20 c-28 25 -73 34 -112 23z
m112 -65 c32 -37 30 -94 -4 -129 -71 -70 -193 10 -155 102 27 64 113 79 159
27z"/>
<path d="M2113 543 c-36 -7 -81 -56 -88 -96 -16 -86 27 -154 104 -164 41 -6
101 11 101 28 0 5 5 9 10 9 6 0 10 -7 10 -15 0 -8 9 -15 20 -15 19 0 20 7 20
125 0 118 -1 125 -20 125 -13 0 -20 -7 -20 -20 l0 -21 -27 21 c-30 21 -74 31
-110 23z m86 -48 c16 -8 34 -27 41 -44 40 -96 -77 -175 -151 -102 -78 79 11
198 110 146z"/>
</g>
</svg>
